HIERARCHY
ROOT Hips
{
	OFFSET 0.00000 0.00000 0.00000
	CHANNELS 6 Xposition Yposition Zposition Zrotation Yrotation Xrotation 
	JOINT RightUpLegDummy
	{
		OFFSET 0 0 0
		CHANNELS 3 Zrotation Yrotation Xrotation
		JOINT RightUpLeg
		{
			OFFSET -3.52197 -3.41223 0.04002
			CHANNELS 3 Zrotation Yrotation Xrotation
			JOINT RightLeg
			{
				OFFSET -1.06336 -17.58347 1.60435
				CHANNELS 3 Zrotation Yrotation Xrotation
				JOINT RightFoot
				{
					OFFSET -0.27018 -17.05419 -1.63900
					CHANNELS 3 Zrotation Yrotation Xrotation
					JOINT RightToes
					{
						OFFSET 0.00298 -1.73825 3.34613
						CHANNELS 3 Zrotation Yrotation Xrotation
						End Site
						{
							OFFSET 0.00480 -0.05416 3.85043
						}
					}
				}
			}
		}
	}
	JOINT SpineDummy
	{
		OFFSET 0 0 0
		CHANNELS 3 Zrotation Yrotation Xrotation
		JOINT Spine
		{
			OFFSET 0.00000 4.14613 0.00000
			CHANNELS 3 Zrotation Yrotation Xrotation
			JOINT Spine1
			{
				OFFSET 0.00000 10.93369 0.05002
				CHANNELS 3 Zrotation Yrotation Xrotation
				JOINT HEadDummy
				{
					OFFSET 0 0 0
					CHANNELS 3 Zrotation Yrotation Xrotation
					JOINT Head
					{
						OFFSET 0.00000 5.52901 0.00438
						CHANNELS 3 Zrotation Yrotation Xrotation
						End Site
						{
							OFFSET -0.11417 7.29012 0.98962
						}
					}
				}
				JOINT LeftShoulder1Dummy
				{
					OFFSET 0 0 0
					CHANNELS 3 Zrotation Yrotation Xrotation
					JOINT LeftShoulder1
					{
						OFFSET 3.53937 -0.14262 -0.08662
						CHANNELS 3 Zrotation Yrotation Xrotation
						JOINT LeftArm
						{
							OFFSET 4.04833 -0.00133 0.12681
							CHANNELS 3 Zrotation Yrotation Xrotation
							JOINT LeftForeArm
							{
								OFFSET 9.67557 0.03289 -0.56117
								CHANNELS 3 Zrotation Yrotation Xrotation
								JOINT LeftHand
								{
									OFFSET 10.17679 0.06873 0.40307
									CHANNELS 3 Zrotation Yrotation Xrotation
									End Site
									{
										OFFSET 6.59293 -0.21483 0.59213
									}
								}
							}
						}
					}
				}
				JOINT RightShoulderDummy
				{
					OFFSET 0 0 0
					CHANNELS 3 Zrotation Yrotation Xrotation
					JOINT RightShoulder
					{
						OFFSET -3.53937 -0.14262 -0.08660
						CHANNELS 3 Zrotation Yrotation Xrotation
						JOINT RightArm
						{
							OFFSET -4.04833 -0.00132 0.12683
							CHANNELS 3 Zrotation Yrotation Xrotation
							JOINT RightForeArm
							{
								OFFSET -9.67570 0.03289 -0.56114
								CHANNELS 3 Zrotation Yrotation Xrotation
								JOINT RightHand
								{
									OFFSET -10.17679 0.06867 0.40304
									CHANNELS 3 Zrotation Yrotation Xrotation
									End Site
									{
										OFFSET -6.54841 -0.21495 0.59212
									}
								}
							}
						}
					}
				}
			}
		}
	}
	JOINT LeftUpLegDummy
	{
		OFFSET 0 0 0
		CHANNELS 3 Zrotation Yrotation Xrotation
		JOINT LeftUpLeg
		{
			OFFSET 3.52197 -3.41223 0.04002
			CHANNELS 3 Zrotation Yrotation Xrotation
			JOINT LeftLeg
			{
				OFFSET 1.08359 -17.35354 1.60336
				CHANNELS 3 Zrotation Yrotation Xrotation
				JOINT LeftFoot
				{
					OFFSET 0.24986 -17.28405 -1.63802
					CHANNELS 3 Zrotation Yrotation Xrotation
					JOINT LeftToes
					{
						OFFSET -0.01575 -1.73822 3.34610
						CHANNELS 3 Zrotation Yrotation Xrotation
						End Site
						{
							OFFSET 0.03150 -0.01868 3.85031
						}
					}
				}
			}
		}
	}
}
MOTION
Frames: 19
Frame Time: 0.033333
-37.5033 39.9790 -1.9948 -174.9330 -36.6135 174.3890 0.0000 0.0000 0.0000 9.9106 -5.3159 -18.1680 4.5864 13.6836 21.8330 4.1131 -0.2197 -3.1173 0.0000 0.0000 -0.0000 0.0000 0.0000 0.0000 -1.2915 5.3959 -0.8189 -4.4040 7.3151 21.1116 0.0000 0.0000 0.0000 -1.3546 13.6621 -6.8218 0.0000 0.0000 0.0000 -10.5692 -2.6873 1.3571 12.1462 -36.9439 -64.0479 179.6441 -72.8051 -165.5166 2.2219 0.3162 -0.0841 0.0000 0.0000 0.0000 1.2683 0.9187 0.4968 28.7729 80.2989 -14.3040 -4.5107 88.7187 7.1207 -12.6983 7.9984 -1.3376 0.0000 0.0000 0.0000 5.7624 25.5306 -6.8103 -4.3113 -10.5909 27.6062 7.4357 0.2075 -17.9758 0.0000 -0.0000 0.0000
-36.9411 40.1180 -1.8969 -175.5910 -34.3657 175.0210 0.0000 0.0000 0.0000 8.0901 -6.4482 -18.7704 6.5101 16.0354 24.1557 8.8855 -0.2469 -6.7280 0.0000 0.0000 -0.0000 0.0000 0.0000 0.0000 -0.8303 6.0817 -0.8539 -5.7992 8.4932 20.6235 0.0000 0.0000 0.0000 -1.2721 13.4918 -6.8529 0.0000 0.0000 0.0000 -9.6606 -2.7618 1.3120 15.2890 -37.6332 -66.1144 179.5094 -80.3114 -165.6659 1.7189 0.0046 -0.0677 0.0000 0.0000 0.0000 0.6717 0.7925 0.4556 28.0293 82.4076 -16.1112 -2.8905 87.4497 9.3486 -12.3548 8.1950 -1.3196 0.0000 0.0000 0.0000 5.5976 26.1300 -6.6412 -3.3880 -9.7273 26.0134 6.8517 0.0904 -16.2644 0.0000 -0.0000 0.0000
-36.4692 40.3501 -1.8107 -176.3610 -32.7438 175.3110 0.0000 0.0000 0.0000 4.5750 -4.8712 -18.4141 3.7979 9.7862 26.9958 5.1687 0.0416 -8.8198 0.0000 0.0000 -0.0000 0.0000 0.0000 0.0000 0.4393 6.4853 -0.3431 -7.6144 9.3951 19.4088 0.0000 0.0000 0.0000 -1.2710 13.3453 -5.9298 0.0000 0.0000 0.0000 -8.9902 -2.8984 1.2923 15.9931 -38.3995 -66.1247 173.2211 -88.4711 -159.3724 1.6053 -0.7372 -0.0694 0.0000 0.0000 0.0000 0.2829 0.8778 0.4460 33.8347 83.9508 -11.0199 -1.6440 85.9041 10.1696 -12.5582 8.1585 -1.3385 0.0000 0.0000 0.0000 5.2157 25.8714 -5.2926 -1.7181 -8.0294 22.6211 6.8459 0.0084 -14.4085 0.0000 -0.0000 0.0000
-36.0722 40.5172 -1.7637 -177.0210 -32.1423 175.9160 0.0000 0.0000 0.0000 0.5940 -3.1232 -17.9614 -1.9937 0.3441 30.2774 -2.5866 0.2105 -7.9718 0.0000 0.0000 -0.0000 0.0000 0.0000 0.0000 1.6006 6.4951 -0.4994 -8.6779 9.5651 18.0542 0.0000 0.0000 0.0000 -1.6902 13.2795 -4.0155 0.0000 0.0000 0.0000 -8.9659 -3.1023 1.3265 14.3670 -38.9439 -64.0638 3.8591 -85.5729 11.0883 2.1686 -1.1474 -0.0996 0.0000 0.0000 0.0000 0.2450 1.0953 0.4655 44.3128 84.7777 -0.6159 -0.9636 84.4658 10.0688 -12.9016 7.8808 -1.3476 0.0000 0.0000 0.0000 4.5651 24.3643 -4.7361 -0.2427 -5.9799 19.9243 6.0478 -0.0741 -12.9364 0.0000 -0.0000 0.0000
-35.6995 40.5444 -1.7677 -177.3960 -32.5836 176.6280 0.0000 0.0000 0.0000 -3.1882 -2.6189 -17.0774 -6.5425 -5.4322 33.6452 -8.7865 0.5411 -4.9362 0.0000 0.0000 -0.0000 0.0000 0.0000 0.0000 2.5213 6.1935 -1.3816 -8.6428 9.0790 17.1628 0.0000 0.0000 0.0000 -2.5451 13.3810 -1.9001 0.0000 0.0000 0.0000 -9.8298 -3.4476 1.4486 11.5536 -38.9279 -60.9926 3.0997 -83.6870 13.7098 2.5167 -0.7717 -0.1114 0.0000 0.0000 0.0000 0.3333 1.1558 0.4758 54.4709 85.0577 9.8157 -0.5241 83.5818 9.5588 -13.0142 7.7012 -1.3407 0.0000 0.0000 0.0000 4.2464 23.8696 -5.5592 -0.2351 -6.0590 19.5081 5.4934 -0.1131 -12.1116 0.0000 -0.0000 0.0000
-35.3273 40.4104 -1.8185 -177.4700 -33.4732 177.2030 0.0000 0.0000 0.0000 -6.7068 -1.5609 -15.0497 -7.3739 -6.0826 35.4339 -9.4899 0.7775 -1.6833 0.0000 0.0000 -0.0000 0.0000 0.0000 0.0000 3.4017 5.8452 -2.5624 -7.9311 8.4146 16.7087 0.0000 0.0000 0.0000 -3.3246 13.5988 -0.5381 0.0000 0.0000 0.0000 -11.3223 -3.8097 1.6260 8.5266 -38.5018 -58.0904 4.1476 -85.0077 13.8387 2.1321 -0.0489 -0.0853 0.0000 0.0000 0.0000 0.4396 0.9643 0.4620 60.2136 84.8892 15.9801 -0.0682 83.5483 8.7775 -13.0592 7.7077 -1.3462 0.0000 0.0000 0.0000 4.3694 24.8813 -7.5608 -1.3056 -7.7122 21.3080 6.0510 -0.0999 -12.2504 0.0000 -0.0000 0.0000
-34.9281 40.0650 -1.9302 -177.6730 -33.8635 177.9740 0.0000 0.0000 0.0000 -9.8304 2.1982 -12.0439 -5.4017 -3.8743 34.3205 -3.3778 0.3340 -1.0501 0.0000 0.0000 -0.0000 0.0000 0.0000 0.0000 4.0541 5.8536 -3.9807 -7.4127 8.2149 16.5713 0.0000 0.0000 0.0000 -3.6442 13.7261 -0.2039 0.0000 0.0000 0.0000 -12.9263 -3.9492 1.7755 5.2629 -38.0747 -55.6180 10.2155 -88.2256 7.0772 1.2347 0.5293 -0.0470 0.0000 0.0000 0.0000 0.7752 0.7742 0.4586 59.5484 84.1523 15.9168 0.4861 84.4225 8.0947 -13.2884 7.5326 -1.3517 0.0000 0.0000 0.0000 4.4721 25.8797 -10.5846 -2.4533 -8.5018 25.0874 6.7113 -0.0404 -13.4336 0.0000 -0.0000 0.0000
-34.4556 39.5343 -2.0717 -178.2380 -33.1353 178.7840 0.0000 0.0000 0.0000 -11.8822 7.8679 -8.8817 -3.5660 -1.8452 30.7681 5.4599 -0.1627 -5.3018 0.0000 0.0000 -0.0000 0.0000 0.0000 0.0000 4.9009 6.3871 -5.0817 -8.0646 8.9214 16.9253 0.0000 0.0000 0.0000 -3.6815 13.7933 -0.7948 0.0000 0.0000 0.0000 -14.4483 -3.8495 1.8703 1.6870 -37.6227 -53.5496 175.2624 -87.3106 -160.0019 0.1025 0.7461 -0.0081 0.0000 0.0000 0.0000 1.4427 0.8250 0.4950 55.0838 82.9487 12.0753 1.1816 85.9734 8.0389 -13.5248 7.1720 -1.3368 0.0000 0.0000 0.0000 4.6158 26.8202 -13.7299 -3.5389 -8.4732 30.0461 6.8347 0.0347 -15.0202 0.0000 -0.0000 0.0000
-33.9358 38.9669 -2.1376 -178.5840 -31.6663 178.6140 0.0000 0.0000 0.0000 -12.1112 12.3162 -6.3353 -3.3877 -1.7412 27.2841 10.3117 0.2687 -12.1378 0.0000 0.0000 -0.0000 0.0000 0.0000 0.0000 7.2645 6.9733 -4.5793 -10.1634 10.2589 17.6502 0.0000 0.0000 0.0000 -3.6334 14.3750 -2.2905 0.0000 0.0000 0.0000 -15.9439 -3.7313 1.9566 -1.7677 -36.6073 -52.3744 178.9185 -82.5031 -165.5565 -0.6493 0.3666 0.0213 0.0000 0.0000 0.0000 2.1693 1.0530 0.5550 51.9578 81.8024 9.3395 2.4780 87.7321 9.0600 -13.6108 7.1239 -1.3403 0.0000 0.0000 0.0000 5.4418 27.5868 -15.7153 -4.3174 -7.9739 34.8169 6.9526 0.0989 -16.3102 0.0000 -0.0000 0.0000
-33.4407 38.4878 -2.0693 -178.1990 -30.6474 177.3070 0.0000 0.0000 0.0000 -10.7545 13.4259 -5.1002 -4.2634 -3.1333 26.5729 9.3759 0.8008 -17.4809 0.0000 0.0000 -0.0000 0.0000 0.0000 0.0000 10.9098 6.8215 -2.3872 -12.5200 11.2179 18.2978 0.0000 0.0000 0.0000 -3.4362 16.0435 -4.3897 0.0000 0.0000 0.0000 -17.1108 -3.7255 2.0435 -4.9349 -34.6978 -52.2622 179.6481 -77.9064 -167.5344 -0.4135 -0.5642 0.0216 0.0000 0.0000 0.0000 2.5870 1.2728 0.6013 52.3322 81.1667 10.0076 7.7450 89.1979 14.1535 -13.8795 7.4062 -1.4004 0.0000 0.0000 0.0000 7.0868 27.5153 -16.9131 -4.4392 -6.9129 38.9872 6.7474 0.1102 -16.8378 0.0000 -0.0000 0.0000
-32.9605 38.1237 -1.9608 -177.5550 -31.0206 176.0950 0.0000 0.0000 0.0000 -9.2914 12.2652 -5.3615 -5.2814 -4.4643 28.6652 7.0204 0.8844 -20.1254 0.0000 0.0000 -0.0000 0.0000 0.0000 0.0000 13.2680 5.8926 -0.2503 -13.3296 11.0332 18.6856 0.0000 0.0000 0.0000 -4.0682 17.8288 -7.1898 0.0000 0.0000 0.0000 -17.4696 -3.7465 2.0760 -7.4436 -32.5784 -52.4194 179.8909 -73.8644 -168.7773 -0.0779 -1.1987 0.0124 0.0000 0.0000 0.0000 2.6022 1.4136 0.6187 54.5592 80.9554 12.7781 90.7542 89.8831 97.0134 -14.4804 7.4953 -1.4742 0.0000 0.0000 0.0000 8.8271 26.6840 -18.9640 -5.3016 -6.5751 43.3070 4.7557 -0.0197 -15.5699 0.0000 -0.0000 0.0000
-32.4619 37.9612 -1.9393 -177.5480 -32.7125 175.8890 0.0000 0.0000 0.0000 -8.8545 10.6604 -5.9692 -5.4869 -4.4822 30.6312 6.8163 0.9462 -21.2007 0.0000 0.0000 -0.0000 0.0000 0.0000 0.0000 12.5908 5.0317 0.7609 -12.1328 9.9933 18.6495 0.0000 0.0000 0.0000 -4.8526 19.0163 -8.4123 0.0000 0.0000 0.0000 -17.0887 -3.7543 2.0489 -7.6709 -31.6571 -52.4902 -179.9890 -71.7570 -169.7305 -1.1011 -0.8607 0.0559 0.0000 0.0000 0.0000 2.4393 1.5103 0.6221 55.3473 80.9031 14.2170 61.2174 89.8699 67.5901 -14.7435 7.3716 -1.4873 0.0000 0.0000 0.0000 9.9239 26.3097 -22.0274 -9.4307 -8.7820 47.5741 1.1019 -0.1441 -11.1939 0.0000 -0.0000 0.0000
-32.0344 38.0143 -1.9849 -177.7530 -34.9611 176.0950 0.0000 0.0000 0.0000 -8.7216 8.8746 -5.7899 -5.0060 -3.8137 30.6429 7.4763 1.0544 -21.8201 0.0000 0.0000 -0.0000 0.0000 0.0000 0.0000 10.9320 4.6406 1.1891 -10.1150 8.9742 17.8869 0.0000 0.0000 0.0000 -5.1551 19.0858 -7.3222 0.0000 0.0000 0.0000 -16.2905 -3.8011 1.9995 -4.7276 -32.6621 -53.2023 -179.8582 -73.1423 -170.0529 -2.6173 -0.3027 0.1138 0.0000 0.0000 0.0000 2.3614 1.5812 0.6276 53.8926 80.9593 12.8877 6.6336 89.1689 13.4133 -14.0856 7.4935 -1.4320 0.0000 0.0000 0.0000 10.6001 27.0804 -25.1590 -15.8687 -12.4119 50.9925 -1.5487 -0.0042 -4.9618 0.0000 -0.0000 0.0000
-31.7615 38.2059 -2.0362 -177.4620 -37.1711 176.1260 0.0000 0.0000 0.0000 -8.0876 6.9650 -4.8382 -4.9268 -3.9062 29.0051 7.1483 1.0160 -21.7115 0.0000 0.0000 -0.0000 0.0000 0.0000 0.0000 10.5589 4.5895 1.3507 -9.1622 8.5711 16.7143 0.0000 0.0000 0.0000 -4.8945 18.0924 -5.0303 0.0000 0.0000 0.0000 -15.0463 -3.8184 1.9090 -0.2024 -35.1151 -54.7380 179.9731 -77.2398 -169.1294 -2.5345 -0.5451 0.1150 0.0000 0.0000 0.0000 2.3635 1.5898 0.6267 51.8528 81.1913 10.1585 2.4420 88.1717 9.5532 -13.1170 7.7625 -1.3585 0.0000 0.0000 0.0000 11.1403 28.2108 -27.5278 -18.8142 -14.3855 51.5638 -0.9960 0.0683 -0.9951 0.0000 -0.0000 0.0000
-31.6144 38.5180 -2.1007 -176.7310 -39.3208 176.3240 0.0000 0.0000 0.0000 -7.1067 5.4147 -3.4952 -5.2854 -4.9165 25.8585 6.6087 0.8652 -20.3846 0.0000 0.0000 -0.0000 0.0000 0.0000 0.0000 11.2070 4.8564 0.6643 -9.4778 8.7115 15.9081 0.0000 0.0000 0.0000 -4.4698 16.5169 -2.2981 0.0000 0.0000 0.0000 -13.4492 -3.7043 1.7634 3.5633 -38.3087 -55.9945 179.3473 -81.6330 -167.3564 -1.3143 -1.0972 0.0725 0.0000 0.0000 0.0000 2.1931 1.5174 0.6095 48.9971 81.5299 6.2162 1.6642 87.3393 8.7092 -12.8117 7.6481 -1.3131 0.0000 0.0000 0.0000 11.6298 28.5633 -28.7658 -14.4982 -13.3566 46.6907 1.8753 -0.1659 -1.5517 0.0000 -0.0000 0.0000
-31.5315 38.8746 -2.1926 -175.9680 -41.5665 176.8180 0.0000 0.0000 0.0000 -6.2183 4.1317 -1.9235 -5.3570 -5.8455 21.6810 6.7336 0.7430 -18.6116 0.0000 0.0000 -0.0000 0.0000 0.0000 0.0000 11.3650 5.4625 -0.6703 -9.5215 8.9664 15.3877 0.0000 0.0000 0.0000 -4.1681 14.6288 0.7671 0.0000 0.0000 0.0000 -12.2011 -3.5521 1.6392 5.9694 -41.9236 -56.4956 178.4575 -85.7958 -165.6324 -0.9389 -1.5074 0.0603 0.0000 0.0000 0.0000 1.8064 1.4253 0.5787 43.3919 81.6355 -0.3442 1.5085 86.6959 8.2719 -13.0535 7.2631 -1.2979 0.0000 0.0000 0.0000 12.0758 27.9304 -28.6667 -7.2608 -10.8277 36.5849 5.2926 -0.3716 -4.0536 0.0000 -0.0000 0.0000
-31.5472 39.1070 -2.2590 -175.3130 -43.9563 176.9780 0.0000 0.0000 0.0000 -5.7218 1.9604 -0.1463 -4.8855 -5.6896 17.9174 6.8285 0.6670 -17.5200 0.0000 0.0000 -0.0000 0.0000 0.0000 0.0000 10.8335 6.0356 -1.4173 -8.6927 9.0089 14.4279 0.0000 0.0000 0.0000 -3.6979 12.4821 3.3386 0.0000 0.0000 0.0000 -11.7586 -3.4718 1.5911 7.9305 -45.5675 -57.2681 8.0372 -89.0174 5.2866 -0.5551 -2.3871 0.0474 0.0000 0.0000 0.0000 1.5543 1.4067 0.5636 36.0858 81.2288 -8.4223 1.2829 86.0947 7.9801 -13.0098 7.1066 -1.2766 0.0000 0.0000 0.0000 12.6258 26.3937 -27.0845 -3.9269 -11.3636 24.9179 7.1289 -0.3997 -5.8311 0.0000 -0.0000 0.0000
-31.7419 39.1163 -2.2324 -174.8210 -46.5103 176.7240 0.0000 0.0000 0.0000 -5.8743 -1.1921 1.4803 -4.3434 -4.6167 15.7964 6.8948 0.6611 -17.3936 0.0000 0.0000 -0.0000 0.0000 0.0000 0.0000 10.6593 6.2647 -1.4707 -8.2554 8.9615 13.4508 0.0000 0.0000 0.0000 -2.8556 10.0006 4.3167 0.0000 0.0000 0.0000 -11.6970 -3.3184 1.5561 9.3705 -48.8174 -58.4552 2.4038 -84.7578 10.5599 0.8565 -2.5812 -0.0308 0.0000 0.0000 0.0000 1.6551 1.4648 0.5752 29.8512 80.2707 -15.4383 1.0270 85.8131 7.9807 -12.5858 7.0202 -1.2243 0.0000 0.0000 0.0000 13.6994 22.3298 -24.9822 -4.1346 -15.8901 16.2745 4.8759 -0.2678 -6.9998 0.0000 -0.0000 0.0000
-32.1307 38.9395 -2.0858 -174.4240 -48.7925 176.6450 0.0000 0.0000 0.0000 -6.6123 -3.4946 2.3664 -3.9825 -3.6950 15.2897 7.9040 0.7631 -17.9089 0.0000 0.0000 -0.0000 0.0000 0.0000 0.0000 11.6941 6.5499 -1.9244 -9.1291 9.4131 13.6188 0.0000 0.0000 0.0000 -2.0127 7.0122 4.2581 0.0000 0.0000 0.0000 -11.9077 -3.0109 1.5087 8.9015 -51.7914 -58.1996 0.8963 -85.7213 10.4041 0.4912 0.2889 -0.0313 0.0000 0.0000 0.0000 1.9545 1.5120 0.5962 24.7504 78.4787 -21.2228 1.0825 86.4815 8.4336 -12.2725 6.5638 -1.1465 0.0000 0.0000 0.0000 15.2353 15.8568 -24.2208 -4.9216 -18.5725 13.1040 -0.6008 -0.0591 -6.4827 0.0000 -0.0000 0.0000
